 <svg  version="1.0" xmlns="http://www.w3.org/2000/svg"  width="300.000000pt" height="272.000000pt" viewBox="0 0 300.000000 272.000000"  preserveAspectRatio="xMidYMid meet">  <g transform="translate(0.000000,272.000000) scale(0.100000,-0.100000)" fill="#bb00ff" stroke="none"> <path d="M1580 2332 c0 -16 9 -37 20 -47 11 -10 20 -28 21 -39 0 -21 1 -21 8 -1 5 11 3 31 -2 45 -13 30 -33 53 -24 27 4 -11 3 -16 -4 -12 -5 4 -7 15 -4 25 3 10 1 21 -5 25 -6 4 -10 -5 -10 -23z"/> <path d="M612 2271 c-12 -7 -11 -14 3 -42 l18 -33 19 24 c10 13 17 30 16 39 -4 18 -36 25 -56 12z m40 -26 c-5 -25 -8 -29 -21 -20 -19 11 -13 47 7 43 11 -2 16 -11 14 -23z"/> <path d="M2040 2226 c0 -21 21 -31 30 -15 5 7 6 17 4 21 -9 14 -34 9 -34 -6z"/> <path d="M1676 2211 c-3 -4 6 -6 21 -3 16 3 24 1 20 -5 -4 -7 32 -12 101 -15 132 -6 166 -20 183 -79 7 -22 21 -45 32 -51 22 -11 65 -58 84 -92 7 -12 12 -16 13 -9 0 7 -13 28 -30 46 -16 19 -30 39 -30 43 0 5 -10 14 -22 19 -14 6 -29 28 -39 55 -22 59 -68 79 -191 79 -48 1 -90 6 -93 11 -8 12 -42 13 -49 1z"/> <path d="M1457 2203 c-13 -12 -7 -26 6 -15 6 5 21 12 32 15 16 4 15 5 -6 6 -14 0 -29 -2 -32 -6z"/> <path d="M1310 2190 c-9 -6 -10 -10 -3 -10 6 0 15 5 18 10 8 12 4 12 -15 0z"/> <path d="M1545 2190 c17 -4 39 -11 50 -15 20 -8 20 -8 0 8 -11 9 -33 16 -50 16 l-30 -1 30 -8z"/> <path d="M1634 2179 c-19 -22 -19 -22 4 -10 12 6 22 16 22 21 0 15 -5 12 -26 -11z"/> <path d="M1372 2170 c-12 -10 -22 -21 -22 -25 0 -14 -45 -65 -57 -65 -7 0 -13 -4 -13 -10 0 -18 27 1 66 47 21 25 48 49 58 53 15 5 16 8 5 12 -8 3 -25 -2 -37 -12z"/> <path d="M1438 2163 c7 -3 16 -2 19 1 4 3 -2 6 -13 5 -11 0 -14 -3 -6 -6z"/> <path d="M1626 2138 c-11 -34 -14 -88 -5 -83 5 4 9 21 9 40 0 22 6 38 18 44 16 10 16 10 -1 11 -10 0 -19 -6 -21 -12z"/> <path d="M1908 2133 c7 -3 16 -2 19 1 4 3 -2 6 -13 5 -11 0 -14 -3 -6 -6z"/> <path d="M1174 2108 l-19 -23 23 19 c21 18 27 26 19 26 -2 0 -12 -10 -23 -22z"/> <path d="M1269 2113 c-13 -17 -13 -17 6 -3 11 8 22 16 24 17 2 2 0 3 -6 3 -6 0 -17 -8 -24 -17z"/> <path d="M1798 2123 c7 -3 16 -2 19 1 4 3 -2 6 -13 5 -11 0 -14 -3 -6 -6z"/> <path d="M490 2110 c0 -5 5 -10 10 -10 6 0 10 5 10 10 0 6 -4 10 -10 10 -5 0 -10 -4 -10 -10z"/> <path d="M1838 2113 c6 -2 18 -2 25 0 6 3 1 5 -13 5 -14 0 -19 -2 -12 -5z"/> <path d="M1895 2100 c27 -12 43 -12 25 0 -8 5 -22 9 -30 9 -10 0 -8 -3 5 -9z"/> <path d="M2137 2090 c39 -9 60 -25 85 -65 10 -16 18 -25 18 -20 0 18 -38 68 -62 81 -13 8 -34 13 -48 13 -21 -1 -20 -2 7 -9z"/> <path d="M350 2076 c0 -7 6 -19 14 -25 19 -16 32 5 16 24 -16 19 -30 19 -30 1z m25 -6 c3 -5 1 -10 -4 -10 -6 0 -11 5 -11 10 0 6 2 10 4 10 3 0 8 -4 11 -10z"/> <path d="M1145 2070 c-3 -6 1 -7 9 -4 18 7 21 14 7 14 -6 0 -13 -4 -16 -10z"/> <path d="M1135 2034 c-6 -8 -39 -27 -74 -42 -35 -15 -66 -32 -68 -38 -5 -15 127 52 152 77 11 10 15 19 10 19 -6 0 -15 -7 -20 -16z"/> <path d="M1564 2005 c-17 -8 -34 -21 -38 -30 -5 -13 0 -12 20 4 15 12 33 21 40 21 7 0 16 5 19 10 8 13 -3 12 -41 -5z"/> <path d="M1991 2004 c0 -11 3 -14 6 -6 3 7 2 16 -1 19 -3 4 -6 -2 -5 -13z"/> <path d="M1379 1983 c-13 -16 -12 -17 4 -4 9 7 17 15 17 17 0 8 -8 3 -21 -13z"/> <path d="M2241 1974 c0 -11 3 -14 6 -6 3 7 2 16 -1 19 -3 4 -6 -2 -5 -13z"/> <path d="M1218 1973 c6 -2 18 -2 25 0 6 3 1 5 -13 5 -14 0 -19 -2 -12 -5z"/> <path d="M1215 1941 c-6 -5 -26 -11 -45 -13 -25 -2 -38 -10 -47 -28 -34 -69 -41 -90 -32 -96 6 -3 6 -11 2 -17 -14 -19 -35 -86 -30 -95 8 -12 -17 -39 -36 -39 -14 0 -17 6 -13 26 5 24 4 23 -9 -4 -12 -28 -12 -30 8 -33 12 -2 36 -7 53 -11 l30 -8 -4 58 c-5 71 4 113 22 106 11 -4 12 2 6 30 -9 39 -1 72 24 92 14 12 22 11 55 -1 l38 -15 -4 26 c-4 25 -4 25 11 7 9 -11 16 -24 16 -29 0 -5 7 -4 14 3 24 19 59 7 79 -28 20 -34 22 -64 11 -180 l-6 -73 28 8 c37 10 262 10 290 0 26 -9 34 14 40 117 4 85 17 126 49 156 23 22 26 22 44 6 17 -16 19 -15 35 10 21 31 33 26 16 -7 -11 -20 -10 -21 6 -14 11 5 37 9 59 9 34 1 41 -3 53 -27 12 -24 12 -35 0 -72 -12 -35 -12 -42 -1 -38 19 7 17 -80 -3 -119 -15 -29 -15 -31 2 -23 11 4 49 10 87 13 55 3 67 2 67 -11 0 -11 7 -13 33 -8 27 6 31 11 29 32 -2 13 -8 28 -12 33 -5 5 -6 -1 -3 -14 3 -13 1 -25 -7 -30 -15 -9 -42 -2 -36 9 3 4 -26 7 -62 6 l-67 0 3 49 c1 27 -3 55 -9 62 -6 7 -8 18 -4 24 24 39 5 109 -35 130 -12 6 -34 9 -50 7 -19 -3 -30 0 -34 9 -7 17 -20 18 -38 2 -7 -7 -29 -13 -48 -13 -32 0 -37 -5 -61 -50 -21 -39 -28 -68 -31 -132 -3 -46 -7 -85 -10 -88 -3 -3 -53 -2 -111 3 -59 4 -107 4 -107 -1 0 -4 -4 -6 -8 -3 -4 3 -25 1 -45 -4 l-37 -8 2 107 c3 100 1 110 -22 143 -21 31 -29 36 -59 33 -20 -2 -40 3 -48 11 -17 16 -25 17 -38 5z m-135 -287 c0 -8 -4 -12 -10 -9 -5 3 -10 10 -10 16 0 5 5 9 10 9 6 0 10 -7 10 -16z"/> <path d="M2251 1940 c0 -8 4 -24 9 -35 5 -13 9 -14 9 -5 0 8 -4 24 -9 35 -5 13 -9 14 -9 5z"/> <path d="M2018 1933 c7 -3 16 -2 19 1 4 3 -2 6 -13 5 -11 0 -14 -3 -6 -6z"/> <path d="M982 1910 c0 -14 2 -19 5 -12 2 6 2 18 0 25 -3 6 -5 1 -5 -13z"/> <path d="M1482 1895 c0 -16 2 -22 5 -12 2 9 2 23 0 30 -3 6 -5 -1 -5 -18z"/> <path d="M970 1834 c0 -6 11 -21 25 -34 15 -14 26 -36 26 -54 l2 -31 4 28 c3 16 -1 34 -7 42 -7 8 -8 20 -4 26 5 8 3 9 -6 4 -8 -5 -18 -1 -27 10 -7 11 -13 14 -13 9z"/> <path d="M850 1791 c0 -5 6 -11 13 -13 17 -7 38 2 31 13 -7 12 -44 12 -44 0z"/> <path d="M1460 1781 c0 -11 4 -22 9 -25 4 -3 6 6 3 19 -5 30 -12 33 -12 6z"/> <path d="M767 1724 c-11 -12 3 -24 28 -24 13 0 26 4 29 9 10 15 -43 29 -57 15z"/> <path d="M485 1700 c-27 -30 5 -110 40 -97 29 12 15 117 -15 117 -4 0 -15 -9 -25 -20z m45 -40 c0 -41 -7 -49 -28 -28 -13 13 -16 50 -5 61 19 19 33 5 33 -33z"/> <path d="M2281 1694 c0 -11 3 -14 6 -6 3 7 2 16 -1 19 -3 4 -6 -2 -5 -13z"/> <path d="M641 1652 c-15 -29 0 -36 57 -27 38 5 45 4 35 -6 -7 -7 -13 -23 -13 -36 0 -18 6 -23 25 -23 22 0 25 4 24 33 -1 17 -3 25 -6 15 -5 -21 -33 -32 -33 -13 0 7 5 17 10 20 6 4 8 10 5 15 -3 5 16 7 44 3 27 -3 62 -2 78 3 22 7 11 10 -57 15 -47 3 -101 9 -122 14 -31 6 -38 4 -47 -13z m49 -12 c0 -5 -7 -10 -15 -10 -8 0 -15 5 -15 10 0 6 7 10 15 10 8 0 15 -4 15 -10z"/> <path d="M2225 1623 c11 -3 29 -12 40 -22 20 -16 20 -16 1 7 -11 12 -29 21 -40 21 -20 -1 -20 -2 -1 -6z"/> <path d="M595 1590 c-3 -5 -1 -10 4 -10 6 0 11 5 11 10 0 6 -2 10 -4 10 -3 0 -8 -4 -11 -10z"/> <path d="M2258 1515 c-15 -29 -15 -34 -1 -48 21 -21 11 -42 -29 -64 -25 -13 -53 -17 -118 -15 -47 2 -107 0 -133 -4 -40 -5 -46 -8 -36 -20 17 -20 6 -198 -15 -248 -9 -22 -15 -41 -13 -42 3 -3 66 -5 187 -4 14 0 45 -10 70 -23 50 -24 63 -56 36 -86 -15 -16 -15 -21 -1 -47 20 -38 19 -47 -5 -69 -15 -13 -31 -17 -68 -13 -32 3 -52 0 -60 -9 -16 -17 -105 -16 -154 1 -35 13 -37 12 -28 -5 21 -38 6 -170 -18 -155 -4 2 -5 -15 -4 -39 5 -59 -11 -85 -50 -85 -17 0 -40 7 -50 17 -17 15 -18 15 -12 -18 5 -32 5 -33 -10 -15 -9 11 -16 26 -16 34 0 12 -4 12 -19 -2 -27 -24 -51 -17 -74 22 -21 36 -24 76 -12 191 l8 73 -24 -13 c-33 -19 -279 -20 -301 -1 -22 18 -29 -4 -34 -108 -7 -129 -61 -219 -100 -165 -11 15 -14 14 -28 -14 -9 -17 -12 -32 -7 -36 5 -3 12 3 16 14 6 21 36 19 56 -5 13 -16 49 -19 49 -3 0 5 -4 7 -10 4 -15 -9 -12 31 3 44 8 6 16 8 20 5 3 -3 4 2 3 13 -2 10 3 30 10 45 10 20 11 34 4 53 -5 14 -6 24 -1 21 5 -3 9 4 9 17 0 74 5 87 29 87 12 0 23 -3 23 -7 0 -5 48 -7 107 -5 l108 2 -25 -20 c-24 -20 -24 -21 -2 -10 13 6 26 18 29 26 3 8 14 14 24 14 17 0 18 -3 9 -20 -7 -14 -7 -20 0 -20 5 0 10 -7 10 -15 0 -8 -4 -15 -9 -15 -5 0 -7 -9 -4 -20 3 -11 1 -20 -3 -20 -5 0 -8 -12 -8 -27 4 -86 71 -167 116 -140 16 10 21 9 29 -6 11 -19 39 -24 39 -6 0 6 8 8 20 4 27 -9 94 26 98 50 1 11 5 34 8 50 4 17 7 35 8 40 1 6 6 16 10 24 5 8 8 38 7 68 -2 46 0 53 17 53 10 0 21 -3 25 -6 12 -13 117 -9 117 4 0 14 11 15 64 3 48 -12 62 -6 70 25 5 17 12 24 25 22 24 -4 51 20 51 46 0 20 -1 20 -13 -3 -18 -36 -41 -41 -35 -8 3 15 2 24 -2 22 -4 -3 -10 5 -13 16 -4 15 0 23 14 26 10 3 19 9 19 14 0 5 -7 6 -15 3 -11 -5 -13 -2 -9 10 14 38 -43 106 -89 106 -5 0 -15 7 -21 16 -11 14 -16 14 -47 1 -29 -12 -38 -12 -53 -1 -10 7 -25 10 -33 7 -12 -5 -12 -7 -1 -14 10 -7 10 -9 -2 -9 -8 0 -22 5 -30 10 -12 8 -13 13 -2 30 7 11 8 20 3 20 -5 0 -7 9 -4 20 6 23 7 23 36 9 19 -9 19 -8 -3 11 -24 21 -24 22 -3 17 12 -3 28 1 34 9 15 18 3 32 -13 16 -15 -15 -52 -16 -43 -1 4 6 7 41 6 79 -1 59 2 69 17 69 9 0 41 0 71 1 29 1 56 -2 60 -7 9 -12 51 -12 51 0 0 6 3 8 6 4 3 -3 26 6 51 20 37 20 47 22 54 12 6 -10 9 -10 9 -2 0 6 -4 14 -9 17 -5 3 -7 15 -4 26 3 11 0 27 -7 35 -11 13 -10 20 0 40 7 14 11 27 9 29 -2 2 -11 -11 -21 -29z"/> <path d="M776 1514 c-8 -22 1 -31 16 -16 9 9 9 15 1 23 -7 7 -12 5 -17 -7z"/> <path d="M637 1513 c-13 -12 -7 -40 11 -54 15 -12 16 -12 6 1 -9 13 -10 21 -5 47 0 3 11 -3 24 -14 12 -11 29 -23 37 -27 8 -4 -1 6 -20 23 -37 32 -43 35 -53 24z"/> <path d="M754 1474 c-21 -9 14 -61 54 -80 22 -11 62 -19 97 -20 160 -4 147 -2 140 -25 -11 -32 -15 -66 -21 -164 -4 -49 -12 -93 -18 -97 -6 -4 -36 -5 -66 -3 -97 7 -120 5 -176 -20 l-54 -24 1 -53 c0 -29 -2 -69 -6 -88 -10 -53 19 -82 84 -83 27 0 48 -3 46 -7 -4 -7 20 -10 96 -11 l55 -1 1 -62 c1 -144 3 -162 16 -179 7 -10 29 -22 47 -26 l35 -8 -37 -16 c-39 -17 -51 -36 -20 -33 11 1 16 -5 14 -18 -2 -10 1 -15 7 -12 5 4 14 -1 19 -10 6 -10 16 -15 26 -11 17 7 22 27 6 27 -5 0 -10 -5 -10 -11 0 -8 -5 -8 -15 1 -8 7 -15 19 -15 26 0 8 -5 14 -11 14 -5 0 -7 5 -4 10 4 6 12 10 18 9 25 -3 38 1 32 11 -3 6 -2 10 4 10 5 0 12 -6 14 -12 3 -7 6 -3 6 9 1 12 5 25 11 28 23 14 8 23 -17 9 -79 -41 -127 12 -100 109 5 18 4 26 -2 23 -17 -11 -22 30 -10 78 6 26 15 49 20 52 24 14 5 20 -28 8 -57 -20 -152 -16 -138 5 2 4 -20 6 -49 3 -45 -4 -57 -1 -75 17 -26 26 -26 47 0 90 19 32 19 34 2 46 -53 40 84 103 183 84 5 -1 36 -1 69 0 l60 1 1 118 c0 84 5 127 16 154 l17 37 -46 7 c-25 4 -69 4 -99 1 -90 -9 -184 36 -167 79 5 15 5 15 -13 8z"/> <path d="M690 1420 c0 -11 9 -29 20 -40 11 -11 20 -24 20 -29 0 -5 7 -15 17 -22 15 -13 15 -12 2 11 -8 14 -22 36 -31 49 -30 40 -20 41 33 5 28 -19 58 -34 68 -33 9 0 -8 12 -36 27 -29 14 -53 32 -53 39 0 7 -9 13 -20 13 -13 0 -20 -7 -20 -20z"/> <path d="M639 1403 c-13 -16 -12 -17 4 -4 9 7 17 15 17 17 0 8 -8 3 -21 -13z"/> <path d="M571 1386 c-8 -10 -3 -11 19 -8 35 5 37 8 10 15 -10 3 -24 -1 -29 -7z"/> <path d="M1363 1383 c-13 -2 -25 -14 -28 -26 -9 -41 -25 -191 -25 -238 l0 -47 85 -3 c47 -2 123 -2 169 -1 76 4 85 6 90 25 11 42 29 277 22 285 -9 8 -278 13 -313 5z m267 -26 c0 -5 7 -7 14 -4 12 5 15 -3 13 -34 -1 -21 -4 -39 -8 -39 -4 0 -5 -13 -3 -30 4 -24 1 -30 -13 -31 -16 -1 -16 -2 -1 -6 13 -3 16 -12 12 -36 -3 -18 -8 -39 -11 -47 -4 -8 -5 -20 -4 -27 1 -9 -36 -11 -146 -10 l-148 2 -3 34 c-3 27 0 33 12 28 8 -3 18 -2 21 3 4 6 -3 10 -15 10 -20 0 -21 4 -15 68 3 37 10 68 14 70 5 2 6 12 4 24 -4 11 0 24 8 29 19 12 269 8 269 -4z"/> <path d="M1480 1299 c0 -5 5 -7 10 -4 6 3 10 8 10 11 0 2 -4 4 -10 4 -5 0 -10 -5 -10 -11z"/> <path d="M1435 1270 c3 -5 11 -10 16 -10 6 0 7 5 4 10 -3 6 -11 10 -16 10 -6 0 -7 -4 -4 -10z"/> <path d="M479 1363 c-13 -16 -12 -17 4 -4 9 7 17 15 17 17 0 8 -8 3 -21 -13z"/> <path d="M848 1353 c7 -3 16 -2 19 1 4 3 -2 6 -13 5 -11 0 -14 -3 -6 -6z"/> <path d="M910 1350 c-30 -7 -26 -8 21 -6 32 0 55 4 52 9 -5 8 -24 7 -73 -3z"/> <path d="M544 1336 c-3 -7 -4 -35 -2 -62 l3 -49 5 63 c5 63 4 73 -6 48z"/> <path d="M1008 1343 c7 -3 16 -2 19 1 4 3 -2 6 -13 5 -11 0 -14 -3 -6 -6z"/> <path d="M2212 1310 c0 -14 2 -19 5 -12 2 6 2 18 0 25 -3 6 -5 1 -5 -13z"/> <path d="M2021 1284 c0 -11 3 -14 6 -6 3 7 2 16 -1 19 -3 4 -6 -2 -5 -13z"/> <path d="M830 1261 c0 -10 19 -25 25 -20 1 2 -3 10 -11 17 -8 7 -14 8 -14 3z"/> <path d="M2178 1240 c12 -5 22 -14 22 -20 0 -6 5 -8 12 -4 14 9 -18 34 -41 33 -10 0 -7 -4 7 -9z"/> <path d="M2100 1230 c0 -5 5 -10 11 -10 5 0 7 5 4 10 -3 6 -8 10 -11 10 -2 0 -4 -4 -4 -10z"/> <path d="M2258 1188 c5 -7 12 -22 15 -33 4 -16 5 -14 6 6 1 17 -5 29 -15 33 -13 5 -14 3 -6 -6z"/> <path d="M2050 1166 c13 -35 5 -46 -15 -20 -13 18 -14 18 -8 -3 7 -28 43 -32 43 -5 0 10 -7 27 -15 38 -14 18 -14 17 -5 -10z"/> <path d="M2114 1158 l-19 -23 23 19 c21 18 27 26 19 26 -2 0 -12 -10 -23 -22z"/> <path d="M2150 1176 c0 -9 30 -14 35 -6 4 6 -3 10 -14 10 -12 0 -21 -2 -21 -4z"/> <path d="M560 1151 c0 -6 4 -13 10 -16 6 -3 7 1 4 9 -7 18 -14 21 -14 7z"/> <path d="M2230 1110 c0 -5 5 -10 11 -10 5 0 7 5 4 10 -3 6 -8 10 -11 10 -2 0 -4 -4 -4 -10z"/> <path d="M595 1080 c3 -5 11 -10 16 -10 6 0 7 5 4 10 -3 6 -11 10 -16 10 -6 0 -7 -4 -4 -10z"/> <path d="M2331 1068 c9 -7 18 -20 22 -28 4 -12 6 -12 6 2 1 10 -9 22 -21 28 -20 9 -21 9 -7 -2z"/> <path d="M2270 1056 c0 -2 8 -10 18 -17 15 -13 16 -12 3 4 -13 16 -21 21 -21 13z"/> <path d="M581 1004 c0 -11 3 -14 6 -6 3 7 2 16 -1 19 -3 4 -6 -2 -5 -13z"/> <path d="M2628 1001 c-7 -10 -31 -28 -53 -39 -22 -12 -36 -21 -32 -22 18 -1 87 42 97 60 13 25 5 26 -12 1z"/> <path d="M2455 979 c-4 -6 -5 -12 -2 -15 2 -3 7 2 10 11 7 17 1 20 -8 4z"/> <path d="M571 964 c0 -11 3 -14 6 -6 3 7 2 16 -1 19 -3 4 -6 -2 -5 -13z"/> <path d="M2296 965 c4 -8 11 -15 16 -15 6 0 5 6 -2 15 -7 8 -14 15 -16 15 -2 0 -1 -7 2 -15z"/> <path d="M2381 933 c7 -12 15 -20 18 -17 3 2 -3 12 -13 22 -17 16 -18 16 -5 -5z"/> <path d="M2371 884 c0 -11 3 -14 6 -6 3 7 2 16 -1 19 -3 4 -6 -2 -5 -13z"/> <path d="M2427 819 c4 -13 8 -18 11 -10 2 7 -1 18 -6 23 -8 8 -9 4 -5 -13z"/> <path d="M2399 818 c7 -10 11 -27 8 -38 -3 -11 -1 -18 4 -14 15 9 10 41 -8 55 -16 13 -17 12 -4 -3z"/> <path d="M2260 811 c0 -8 -7 -11 -17 -6 -15 5 -16 4 -5 -6 9 -10 15 -10 24 -1 6 6 9 15 5 19 -4 3 -7 1 -7 -6z"/> <path d="M2320 800 c0 -5 5 -10 11 -10 5 0 7 5 4 10 -3 6 -8 10 -11 10 -2 0 -4 -4 -4 -10z"/> <path d="M2216 767 c3 -10 9 -15 12 -12 3 3 0 11 -7 18 -10 9 -11 8 -5 -6z"/> <path d="M2440 766 c0 -8 4 -17 9 -20 5 -4 7 3 4 14 -6 23 -13 26 -13 6z"/> <path d="M2065 750 c-3 -5 -1 -10 4 -10 6 0 11 5 11 10 0 6 -2 10 -4 10 -3 0 -8 -4 -11 -10z"/> <path d="M2477 710 c3 -25 7 -47 9 -49 8 -9 2 55 -6 74 -6 13 -7 5 -3 -25z"/> <path d="M2000 715 c-11 -13 -10 -14 4 -9 9 3 16 10 16 15 0 13 -6 11 -20 -6z"/> <path d="M2438 707 c-3 -19 -2 -25 4 -19 6 6 8 18 6 28 -3 14 -5 12 -10 -9z"/> <path d="M2205 710 c-3 -6 1 -7 9 -4 18 7 21 14 7 14 -6 0 -13 -4 -16 -10z"/> <path d="M2381 683 c-10 -26 -10 -27 4 -9 8 11 15 23 15 28 0 15 -7 8 -19 -19z"/> <path d="M610 676 c0 -2 7 -7 16 -10 8 -3 12 -2 9 4 -6 10 -25 14 -25 6z"/> <path d="M2522 660 c0 -14 2 -19 5 -12 2 6 2 18 0 25 -3 6 -5 1 -5 -13z"/> <path d="M491 660 c0 -8 4 -24 9 -35 5 -13 9 -14 9 -5 0 8 -4 24 -9 35 -5 13 -9 14 -9 5z"/> <path d="M2393 639 c9 -6 14 -15 11 -21 -4 -7 -2 -8 5 -4 14 9 -3 36 -23 36 -6 0 -3 -5 7 -11z"/> <path d="M1360 629 c0 -5 5 -7 10 -4 6 3 10 8 10 11 0 2 -4 4 -10 4 -5 0 -10 -5 -10 -11z"/> <path d="M2483 585 c0 -27 2 -38 4 -22 2 15 2 37 0 50 -2 12 -4 0 -4 -28z"/> <path d="M2441 615 c0 -5 6 -21 14 -35 8 -14 14 -20 14 -15 0 6 -6 21 -14 35 -8 14 -14 21 -14 15z"/> <path d="M1527 604 c-8 -8 1 -24 14 -24 5 0 9 7 9 15 0 15 -12 20 -23 9z"/> <path d="M511 593 c-3 -34 56 -123 82 -123 5 0 -5 11 -21 25 -17 14 -37 45 -45 68 -9 23 -16 37 -16 30z"/> <path d="M654 570 c15 -19 29 -42 32 -52 3 -9 16 -19 29 -22 16 -4 26 -18 35 -49 16 -59 55 -78 175 -84 50 -2 103 -9 118 -15 21 -8 31 -8 40 1 9 10 8 11 -7 5 -11 -4 -21 -2 -26 6 -6 9 -30 12 -78 11 -71 -2 -156 13 -181 33 -8 6 -23 30 -33 53 -10 23 -27 45 -38 48 -11 4 -20 9 -20 13 -1 4 -17 25 -37 47 -30 33 -31 34 -9 5z"/> <path d="M2423 582 c11 -12 13 -22 6 -35 -6 -10 -6 -17 -1 -17 16 0 23 30 12 51 -6 10 -16 19 -22 19 -6 0 -4 -7 5 -18z"/> <path d="M910 555 c0 -19 11 -19 36 0 18 14 18 14 -8 15 -18 0 -28 -5 -28 -15z"/> <path d="M760 550 c0 -5 5 -10 11 -10 5 0 7 5 4 10 -3 6 -8 10 -11 10 -2 0 -4 -4 -4 -10z"/> <path d="M1550 540 c-13 -8 -12 -10 3 -10 9 0 17 5 17 10 0 12 -1 12 -20 0z"/> <path d="M2256 525 c-11 -8 -18 -17 -15 -19 2 -2 15 4 28 15 27 22 15 26 -13 4z"/> <path d="M2440 493 c-13 -26 -23 -55 -23 -63 0 -19 -37 -61 -49 -54 -4 3 -11 -3 -15 -13 -4 -10 -14 -23 -22 -30 -10 -8 -12 -12 -4 -13 18 0 79 56 102 93 18 30 44 117 37 125 -2 1 -14 -19 -26 -45z"/> <path d="M2376 511 c-3 -4 1 -16 8 -26 14 -20 38 -12 30 10 -7 16 -31 27 -38 16z"/> <path d="M770 480 c0 -6 7 -10 15 -10 8 0 15 2 15 4 0 2 -7 6 -15 10 -8 3 -15 1 -15 -4z"/> <path d="M1128 465 c2 -14 -2 -33 -9 -42 -12 -14 -12 -16 1 -11 16 5 28 78 12 78 -5 0 -7 -11 -4 -25z"/> <path d="M1678 483 c7 -3 16 -2 19 1 4 3 -2 6 -13 5 -11 0 -14 -3 -6 -6z"/> <path d="M1940 486 c0 -2 8 -10 18 -17 15 -13 16 -12 3 4 -13 16 -21 21 -21 13z"/> <path d="M670 469 c0 -5 5 -7 10 -4 6 3 10 8 10 11 0 2 -4 4 -10 4 -5 0 -10 -5 -10 -11z"/> <path d="M1263 457 c2 -31 41 -82 56 -72 5 3 12 -4 16 -15 3 -11 11 -20 17 -20 7 0 6 5 -1 14 -7 8 -8 16 -4 18 4 1 -3 14 -16 28 l-23 25 7 -25 c7 -22 6 -23 -9 -11 -10 8 -14 21 -11 32 4 13 1 19 -9 19 -8 0 -17 8 -19 18 -3 9 -4 4 -4 -11z"/> <path d="M1538 473 c6 -2 18 -2 25 0 6 3 1 5 -13 5 -14 0 -19 -2 -12 -5z"/> <path d="M623 463 c9 -2 23 -2 30 0 6 3 -1 5 -18 5 -16 0 -22 -2 -12 -5z"/> <path d="M1485 460 c-3 -5 3 -10 15 -10 12 0 18 5 15 10 -3 6 -10 10 -15 10 -5 0 -12 -4 -15 -10z"/> <path d="M1746 453 c-6 -14 -5 -15 5 -6 7 7 10 15 7 18 -3 3 -9 -2 -12 -12z"/> <path d="M1808 463 c7 -3 16 -2 19 1 4 3 -2 6 -13 5 -11 0 -14 -3 -6 -6z"/> <path d="M2250 450 c0 -5 5 -10 10 -10 6 0 10 5 10 10 0 6 -4 10 -10 10 -5 0 -10 -4 -10 -10z"/> <path d="M1402 427 c-27 -29 -28 -41 -3 -28 10 6 21 20 24 31 7 25 5 25 -21 -3z"/> <path d="M1775 440 c3 -5 10 -10 16 -10 5 0 9 5 9 10 0 6 -7 10 -16 10 -8 0 -12 -4 -9 -10z"/> <path d="M1980 440 c-9 -6 -10 -10 -3 -10 6 0 15 5 18 10 8 12 4 12 -15 0z"/> <path d="M1035 410 c-3 -6 1 -7 9 -4 18 7 21 14 7 14 -6 0 -13 -4 -16 -10z"/> <path d="M1767 409 c7 -7 15 -10 18 -7 3 3 -2 9 -12 12 -14 6 -15 5 -6 -5z"/> <path d="M2330 410 c0 -5 5 -10 10 -10 6 0 10 5 10 10 0 6 -4 10 -10 10 -5 0 -10 -4 -10 -10z"/> <path d="M1085 384 l-30 -13 31 -1 c17 0 37 6 43 13 14 18 -4 18 -44 1z"/> <path d="M1885 390 c-3 -5 -1 -10 4 -10 6 0 11 5 11 10 0 6 -2 10 -4 10 -3 0 -8 -4 -11 -10z"/> <path d="M1170 375 c14 -8 36 -14 50 -14 18 0 12 4 -20 15 -56 17 -62 17 -30 -1z"/> <path d="M1409 370 c-1 -5 -2 -15 -3 -22 0 -6 -7 -13 -15 -16 -9 -3 -11 2 -7 19 4 18 2 16 -9 -6 -8 -16 -14 -27 -15 -23 0 11 -76 -65 -89 -90 -16 -29 -9 -38 13 -17 9 9 20 13 26 10 10 -6 80 31 80 42 0 2 -15 -5 -34 -16 -40 -25 -53 -27 -35 -4 8 9 13 18 11 21 -2 3 12 10 31 17 29 10 107 61 107 70 0 2 -9 1 -20 -2 -11 -3 -20 -9 -20 -14 0 -5 -4 -9 -9 -9 -4 0 -6 11 -3 25 2 14 2 25 -2 25 -3 0 -7 -4 -7 -10z m-18 -60 c-12 -11 -28 -17 -34 -13 -7 4 1 12 18 19 41 18 44 17 16 -6z"/> <path d="M1270 360 c-13 -8 -13 -10 2 -10 9 0 20 5 23 10 8 13 -5 13 -25 0z"/> <path d="M1952 357 c10 -8 15 -17 11 -20 -3 -4 -2 -7 4 -7 6 0 14 8 17 17 4 10 4 14 0 11 -4 -4 -16 -3 -28 3 -19 9 -19 9 -4 -4z"/> <path d="M687 346 c-7 -16 1 -26 20 -26 7 0 13 9 13 20 0 23 -25 27 -33 6z"/> <path d="M1870 348 c0 -4 14 -8 30 -8 17 0 30 3 30 8 0 4 -13 7 -30 7 -16 1 -30 -3 -30 -7z"/> <path d="M2106 344 c-20 -19 -20 -24 0 -24 8 0 13 4 9 9 -3 5 3 11 12 13 12 2 14 6 6 11 -6 4 -19 0 -27 -9z"/> <path d="M2312 348 c-16 -16 -52 -21 -52 -7 0 5 -5 7 -11 4 -6 -5 -4 -12 7 -20 17 -12 16 -13 -3 -19 -26 -8 -79 14 -61 25 7 4 10 11 7 14 -4 3 -11 -1 -18 -9 -20 -24 14 -48 63 -44 35 3 41 6 38 23 -2 16 -1 17 7 5 5 -8 11 -12 13 -10 12 18 28 50 25 50 -2 0 -8 -5 -15 -12z"/> <path d="M1230 330 c-10 -6 -2 -7 25 -3 49 7 58 13 19 13 -16 0 -36 -5 -44 -10z"/> <path d="M1320 325 c0 -8 2 -15 4 -15 2 0 6 7 10 15 3 8 1 15 -4 15 -6 0 -10 -7 -10 -15z"/> <path d="M1575 330 c3 -5 -2 -10 -11 -10 -10 0 -15 -2 -12 -5 3 -4 18 -3 33 1 20 5 23 9 13 15 -18 12 -31 11 -23 -1z"/> <path d="M1115 305 c11 -16 20 -32 22 -34 2 -2 3 11 2 30 0 19 -3 28 -6 21 -4 -10 -8 -10 -21 0 -12 10 -11 6 3 -17z"/> <path d="M1803 323 c9 -2 23 -2 30 0 6 3 -1 5 -18 5 -16 0 -22 -2 -12 -5z"/> <path d="M2010 320 c0 -6 7 -10 15 -10 8 0 15 2 15 4 0 2 -7 6 -15 10 -8 3 -15 1 -15 -4z"/> <path d="M2126 314 c-3 -8 -2 -12 4 -9 6 3 10 1 10 -5 0 -6 4 -9 10 -5 10 6 2 35 -10 35 -4 0 -11 -7 -14 -16z"/> <path d="M1203 305 c0 -7 6 -11 14 -8 7 3 13 6 13 8 0 2 -6 5 -13 8 -8 3 -14 -1 -14 -8z"/> <path d="M1630 316 c0 -2 7 -6 15 -10 8 -3 15 -1 15 4 0 6 -7 10 -15 10 -8 0 -15 -2 -15 -4z"/> <path d="M1735 311 c-6 -5 -21 -11 -35 -14 -24 -4 -24 -4 3 -6 16 0 35 6 43 14 16 16 5 22 -11 6z"/> <path d="M1855 308 c-16 -5 -59 -18 -95 -28 -36 -10 -57 -19 -47 -19 24 -1 169 39 182 51 12 10 -1 9 -40 -4z"/> <path d="M1487 299 c7 -7 15 -10 18 -7 3 3 -2 9 -12 12 -14 6 -15 5 -6 -5z"/> <path d="M1960 306 c0 -2 8 -10 18 -17 15 -13 16 -12 3 4 -13 16 -21 21 -21 13z"/> <path d="M2100 295 c7 -8 17 -15 22 -15 5 0 3 7 -6 15 -8 8 -18 15 -22 15 -3 0 -1 -7 6 -15z"/> <path d="M1157 285 c-7 -16 8 -29 23 -20 15 9 12 35 -4 35 -8 0 -16 -7 -19 -15z"/> <path d="M1595 280 c27 -12 43 -12 25 0 -8 5 -22 9 -30 9 -10 0 -8 -3 5 -9z"/> <path d="M1640 270 c0 -5 -21 -11 -47 -13 -44 -3 -43 -4 13 -5 43 -1 63 2 67 11 3 8 -3 14 -14 14 -10 1 -19 -2 -19 -7z"/> <path d="M1508 263 c7 -3 16 -2 19 1 4 3 -2 6 -13 5 -11 0 -14 -3 -6 -6z"/> <path d="M2178 243 c7 -3 16 -2 19 1 4 3 -2 6 -13 5 -11 0 -14 -3 -6 -6z"/> <path d="M1160 220 c13 -23 20 -26 20 -6 0 8 -7 16 -15 20 -13 4 -14 2 -5 -14z"/> <path d="M1786 194 c-10 -26 -7 -49 10 -70 15 -18 15 -18 5 3 -14 27 -14 60 -2 68 5 3 9 -8 9 -25 -1 -34 14 -56 31 -46 19 12 13 64 -8 76 -27 14 -38 13 -45 -6z m41 -46 c-3 -8 -6 -5 -6 6 -1 11 2 17 5 13 3 -3 4 -12 1 -19z"/> </g> </svg> 